<svg width="28" height="27" viewBox="0 0 28 27" fill="none" xmlns="http://www.w3.org/2000/svg">
<path d="M13.1123 0.00390625C20.0194 0.178825 25.5653 5.83303 25.5654 12.7822L25.5605 13.1123C25.4908 15.868 24.5464 18.4053 22.998 20.4619C23.0501 20.4971 23.1004 20.5369 23.1465 20.583L27.1826 24.6201L27.251 24.6953C27.5715 25.0881 27.5488 25.668 27.1826 26.0342C26.8164 26.4004 26.2365 26.4231 25.8438 26.1025L25.7686 26.0342L21.7324 21.998C21.717 21.9826 21.7027 21.9654 21.6885 21.9492C19.3864 24.1865 16.2458 25.5654 12.7822 25.5654L12.4521 25.5605C5.65484 25.3881 0.176047 19.9097 0.00390625 13.1123L0 12.7822C0.000155132 5.72287 5.72287 0.000155136 12.7822 0L13.1123 0.00390625ZM12.7822 2C6.82744 2.00016 2.00016 6.82744 2 12.7822C2 18.7371 6.82734 23.5653 12.7822 23.5654C18.7372 23.5654 23.5654 18.7372 23.5654 12.7822C23.5653 6.82734 18.7371 2 12.7822 2Z" fill="url(#paint0_linear_1_13)"/>
<defs>
<linearGradient id="paint0_linear_1_13" x1="13.7377" y1="0" x2="13.7377" y2="26.327" gradientUnits="userSpaceOnUse">
<stop stop-color="#FF7E9F"/>
<stop offset="1" stop-color="#0051C3"/>
</linearGradient>
</defs>
</svg>
