<svg width="19" height="18" viewBox="0 0 19 18" fill="none" xmlns="http://www.w3.org/2000/svg">
<path d="M9.02832 0.0107422C13.5651 0.240568 17.1729 3.98957 17.1729 8.58008L17.1611 9.02148C17.0775 10.6699 16.5266 12.1945 15.6406 13.4688C15.6892 13.5024 15.7361 13.5398 15.7793 13.583L18.4922 16.2939L18.5605 16.3691C18.8811 16.7617 18.8584 17.341 18.4922 17.707C18.1258 18.0731 17.5453 18.0959 17.1523 17.7754L17.0771 17.707L14.3643 14.9971C14.3511 14.984 14.3394 14.9697 14.3271 14.9561C12.8058 16.3248 10.7942 17.1602 8.58594 17.1602L8.14453 17.1484C3.75408 16.926 0.233262 13.4087 0.0107422 9.02148L0 8.58008C0 3.84162 3.84401 0.000244629 8.58594 0L9.02832 0.0107422ZM8.58594 2C4.94718 2.00024 2 4.9476 2 8.58008C2.00004 12.2125 4.9472 15.1599 8.58594 15.1602C12.2249 15.1602 15.1728 12.2127 15.1729 8.58008C15.1729 4.94745 12.2249 2 8.58594 2Z" fill="white"/>
</svg>
